<svg xmlns="http://www.w3.org/2000/svg" width="285" height="298" viewBox="0 0 285 298"><defs><clipPath id="f7pga"><path fill="#fff" d="M0 298V0h285v298zm3-155.123C3 217.895 61.895 279.12 135.85 282.6l7.12 12.398 7.147-12.447C223.618 278.584 282 217.567 282 142.877 282 65.625 219.544 3 142.5 3S3 65.625 3 142.877z"/></clipPath></defs><g><g><path fill="#394b50" d="M142.5 3C219.544 3 282 65.625 282 142.877c0 77.253-62.456 139.878-139.5 139.878S3 220.13 3 142.877C3 65.625 65.456 3 142.5 3zm.47 291.997l-17.845-31.078h35.69l-17.845 31.078"/><path fill="none" stroke="#fff" stroke-linecap="round" stroke-linejoin="round" stroke-miterlimit="20" stroke-width="6" d="M142.5 3C219.544 3 282 65.625 282 142.877c0 77.253-62.456 139.878-139.5 139.878S3 220.13 3 142.877C3 65.625 65.456 3 142.5 3zm.47 291.997v0l-17.845-31.078v0h35.69v0l-17.845 31.078v0" clip-path="url(&quot;#f7pga&quot;)"/></g></g></svg>